<svg xmlns:xlink="http://www.w3.org/1999/xlink" xmlns="http://www.w3.org/2000/svg" height="800" version="1.1" viewBox="-40 -20 80 20" width="800">
<!-- Tête -->
<g>
<path d="m -18 4 C -21 1 -22 -2 -22 -3 C -22 -6 -22 -10 -20 -13 C -11 -28 12 -28 20 -13 C 22 -10 22 -6 22 -3 C 22 -2 21 1 18 4 C 14 7 13 8 9 10 C 4 13 -4 13 -9 10 C -13 8 -14 7 -18 4" fill="#FB8D31"></path>
<path d="m -18 4 C -21 1 -22 -2 -22 -3 C -20 -5 -18 -4 -14 -3 C -8 -1 -6 -2 -5 -4 C -3 -8 3 -8 5 -4 C 6 -2 8 -1 14 -3 C 18 -4 20 -5 22 -3 C 22 -2 21 1 18 4 C 14 7 13 8 9 10 C 4 13 -4 13 -9 10 C -13 8 -14 7 -18 4" fill="#FFFFFF"></path>
<path d="m -18 4 C -21 1 -21 0 -21 0 C -18 -1 -17 2 -15 3 C -4 10 4 10 15 3 C 17 2 18 -1 21 0 C 21 0 21 1 18 4 C 14 7 13 8 9 10 C 4 13 -4 13 -9 10 C -13 8 -14 7 -18 4" fill="#DBC7D8"></path>
<path d="m -18 4 C -21 1 -22 -2 -22 -3 C -22 -6 -22 -10 -20 -13 C -11 -28 12 -28 20 -13 C 22 -10 22 -6 22 -3 C 22 -2 21 1 18 4 C 14 7 13 8 9 10 C 4 13 -4 13 -9 10 C -13 8 -14 7 -18 4" fill="#000000" stroke="#641350" stroke-width="0.6px" fill-opacity="0"></path>
</g>
<!-- Nez -->
<path d="M -2.3 -5.7 C -1.6 -6.4 1.6 -6.4 2.3 -5.7 C 1.6 -3.6 -1.6 -3.6 -2.3 -5.7" fill="#641350" stroke="#641350" stroke-linecap="round" stroke-linejoin="round" stroke-width="0.9px"></path>
<!-- Bouche -->
<path d="M -4 -2 C -2 0 0 -1 0 -4 C 0 -1 2 0 4 -2" fill="#000000" stroke="#641350" stroke-linecap="round" stroke-linejoin="round" stroke-width="0.75px" fill-opacity="0"></path>
<!-- Yeux -->
<path d="M -11.9 -7.4 C -11.4 -8.6 -8.8 -10.5 -6.7 -8.6 C -5.4 -7.3 -6.3 -6.8 -7.1 -7.8 C -8 -8.7 -9.9 -8.8 -11.1 -6.9 C -11.5 -6.5 -12 -6.9 -11.9 -7.4" fill="#641350"></path>
<path d="M 11.9 -7.4 C 11.4 -8.6 8.8 -10.5 6.7 -8.6 C 5.4 -7.3 6.3 -6.8 7.1 -7.8 C 8 -8.7 9.9 -8.8 11.1 -6.9 C 11.5 -6.5 12 -6.9 11.9 -7.4" fill="#641350"></path>
<!-- oreilles -->
<g>
<path d="m -17 -15 C -21 -24 -19 -27 -18.2 -35.1 C -18 -37.4 -17.4 -36.4 -16.2 -35.5 C -12.9 -32.9 -9.1 -30 -5.2 -22 C -10 -21 -12 -20 -17 -15" fill="#FB8D31"></path>
<path d="M-14.7-19.7C-16.7-25-16-27.5-15.5-30.6-15.5-30.9-15.4-30.9-15.2-30.7-13.9-29.3-11.6-26.8-10.4-24.1-9.7-22-9.8-21.8-11.4-21-12.4-20.6-13.3-20.3-13.9-19.4-14.4-18.9-14.5-19.3-14.7-19.7" fill="#F34054"></path>
<path d="m-6.9-22.5C-9.8-29.2-16-33.9-17.1-34.3-18-34.8-18.3-34.8-18.2-35.1-18-37.4-17.4-36.4-16.2-35.5-12.9-32.9-9.1-30-5.2-22-5-21.6-6.4-21.6-6.9-22.5" fill="#FFB64F"></path>
<path d="m-15.3-30.4C-13.9-29.3-11.6-26.8-10.4-24.1-9.7-22-9.8-21.8-11.4-21-12.4-20.6-13.3-20.3-14.2-19.2" fill="#000000" stroke="#641350" stroke-linecap="round" stroke-linejoin="round" stroke-width="0.6px" fill-opacity="0"></path>
<path d="m-17-15C-21-24-19-27-18.2-35.1-18-37.4-17.4-36.4-16.2-35.5-12.9-32.9-9.1-30-5.2-22" fill="#000000" stroke="#641350" stroke-linecap="round" stroke-linejoin="round" stroke-width="0.6px" fill-opacity="0"></path>
</g>
<g>
<path d="m 17 -15 C 21 -24 19 -27 18.2 -35.1 C 18 -37.4 17.4 -36.4 16.2 -35.5 C 12.9 -32.9 9.1 -30 5.2 -22 C 10 -21 12 -20 17 -15" fill="#FB8D31"></path>
<path d="M 14.7 -19.7 C 16.7 -25 16 -27.5 15.5 -30.6 15.5 -30.9 15.4 -30.9 15.2 -30.7 13.9 -29.3 11.6 -26.8 10.4 -24.1 9.7  -22   9.8  -21.8 11.4   -21   12.4 -20.6 13.3 -20.3 13.9 -19.4 14.4 -18.9 14.5 -19.3 14.7 -19.7" fill="#F34054"></path>
<path d="m 6.9 -22.5 C 9.8 -29.2 16 -33.9 17.1 -34.3 18 -34.8 18.3 -34.8 18.2 -35.1 18 -37.4 17.4 -36.4 16.2 -35.5 12.9 -32.9 9.1 -30 5.2 -22 5 -21.6 6.4 -21.6 6.9 -22.5" fill="#FFB64F"></path>
<path d="m 15.3 -30.4 C 13.9 -29.3 11.6 -26.8 10.4 -24.1 9.7 -22 9.8 -21.8 11.4 -21 12.4 -20.6 13.3 -20.3 14.2 -19.2" fill="#000000" stroke="#641350" stroke-linecap="round" stroke-linejoin="round" stroke-width="0.6px" fill-opacity="0"></path>
<path d="m 17 -15 C 21 -24 19 -27 18.2 -35.1 18 -37.4 17.4 -36.4 16.2 -35.5 12.9 -32.9 9.1 -30 5.2 -22" fill="#000000" stroke="#641350" stroke-linecap="round" stroke-linejoin="round" stroke-width="0.6px" fill-opacity="0"></path>
</g>
<!-- Moustaches -->
<g>
<path d="M-21.4-6.6C-23-4.1-23.2-3-25-1.7-26.1-.9-25.9-.5-24.8 0-23.9.5-23 .7-21.9.7-21.9 1.4-22.9 2.1-23.4 2.4-24.1 2.7-24 3.4-23.3 3.5-21.5 3.7-19.6 3.7-16.4 4.6" fill="#FB8D31"></path>
<path d="M-19.9-4.1C-22.4-3.6-23.1-2.6-24.7-1.6-26.1-.9-25.9-.5-24.8 0-23.9.5-23 .7-21.9.7-20.4.5-19.1.5-18 .6" fill="#FFFFFF"></path>
<path d="M-14.6 3.3C-16 2.4-16.3 1.6-17.3.8-19.2-.8-21.8-.4-25.1-.8-26.2-1-25.9-.5-24.8 0-23.9.5-23 .7-21.9.7-21.9 1.4-22.9 2.1-23.4 2.4-24.1 2.7-24 3.4-23.3 3.5-21.5 3.7-19.6 3.7-16.4 4.6" fill="#DBC7D8"></path>
<path d="M-21.4-6.6C-23-4.1-23.2-3-25-1.7-26.1-.9-25.9-.5-24.8 0-23.9.5-23 .7-21.9.7-21.9 1.4-22.9 2.1-23.4 2.4-24.1 2.7-24 3.4-23.3 3.5-21.5 3.7-19.6 3.7-16.4 4.6" fill="#000000" stroke="#641350" stroke-linecap="round" stroke-linejoin="round" stroke-width="0.6px" fill-opacity="0"></path>
</g>
<g>
<path d="M 21.4 -6.6 C 23 -4.1 23.2 -3 25 -1.7 26.1 -.9 25.9 -.5 24.8 0 23.9 .5 23 .7 21.9 .7 21.9 1.4 22.9 2.1 23.4 2.4 24.1 2.7 24 3.4 23.3 3.5 21.5 3.7 19.6 3.7 16.4 4.6" fill="#FB8D31"></path>
<path d="M 19.9 -4.1 C 22.4 -3.6 23.1 -2.6 24.7 -1.6 26.1 -.9 25.9 -.5 24.8 0 23.9 .5 23 .7 21.9 .7 20.4 .5 19.1 .5 18 .6" fill="#FFFFFF"></path>
<path d="M 14.6 3.3 C 16 2.4 16.3 1.6 17.3 .8 19.2 -.8 21.8 -.4 25.1 -.8 26.2 -1 25.9 -.5 24.8 0 23.9 .5 23 .7 21.9 .7 21.9 1.4 22.9 2.1 23.4 2.4 24.1 2.7 24 3.4 23.3 3.5 21.5 3.7 19.6 3.7 16.4 4.6" fill="#DBC7D8"></path>
<path d="M 21.4 -6.6 C 23 -4.1 23.2 -3 25 -1.7 26.1 -.9 25.9 -.5 24.8 0 23.9 .5 23 .7 21.9 .7 21.9 1.4 22.9 2.1 23.4 2.4 24.1 2.7 24 3.4 23.3 3.5 21.5 3.7 19.6 3.7 16.4 4.6" fill="#000000" stroke="#641350" stroke-linecap="round" stroke-linejoin="round" stroke-width="0.6px" fill-opacity="0"></path>
</g>
<!-- Cheveux -->
<g>
<path d="M -6.5 -21.5 C -5.4 -24 -5.1 -24.9 -3 -25.8 C -1.4 -26.3 -0.5 -25.7 -1.6 -24.9 C -2.4 -24.3 -2.7 -23.8 -2.5 -23.1 C 0.2 -25.4 2 -27.2 5.5 -26.2 C 9.4 -24.6 7.6 -21.4 5.2 -21.3 C 3.2 -21.1 2.9 -20.6 3 -20.4" fill="#FB8D31"></path>
<path d="M -6.5 -21.5 C -5.4 -24 -5.1 -24.9 -3 -25.8 C -1.4 -26.3 -0.5 -25.7 -1.6 -24.9 C -2.4 -24.3 -2.7 -23.8 -2.5 -23.1 C 0.2 -25.4 2 -27.2 5.5 -26.2 C 9.4 -24.6 7.6 -21.4 5.2 -21.3 C 3.2 -21.1 2.9 -20.6 3 -20.4" fill="#000000" stroke="#641350" stroke-linecap="round" stroke-linejoin="round" stroke-width="0.6px" fill-opacity="0"></path>
</g>
</svg>